<svg width="113" height="30" viewBox="0 0 113 30" fill="none" xmlns="http://www.w3.org/2000/svg">
<path d="M6.37 28H7.15L3.95 21H3.22L0.02 28H0.79L1.63 26.13H5.53L6.37 28ZM1.9 25.53L3.58 21.77L5.26 25.53H1.9ZM8.35797 28H9.06797V20.58H8.35797V28ZM18.3135 22.74L16.6435 27.21L14.9635 22.74H14.3535L12.6635 27.21L11.0135 22.74H10.3335L12.3135 28H12.9835L14.6435 23.69L16.3035 28H16.9735L18.9635 22.74H18.3135ZM21.9163 22.7C21.0863 22.7 20.3063 22.96 19.7763 23.41L20.0963 23.94C20.5263 23.56 21.1663 23.32 21.8463 23.32C22.8263 23.32 23.3363 23.81 23.3363 24.71V25.03H21.6663C20.1563 25.03 19.6363 25.71 19.6363 26.52C19.6363 27.43 20.3663 28.05 21.5563 28.05C22.4263 28.05 23.0463 27.72 23.3663 27.18V28H24.0463V24.74C24.0463 23.38 23.2763 22.7 21.9163 22.7ZM21.6663 27.49C20.8263 27.49 20.3363 27.11 20.3363 26.5C20.3363 25.96 20.6663 25.56 21.6863 25.56H23.3363V26.42C23.0563 27.11 22.4663 27.49 21.6663 27.49ZM29.7971 22.74L27.8171 27.21L25.8371 22.74H25.0971L27.4471 27.99L27.2171 28.5C26.9171 29.16 26.5971 29.38 26.1271 29.38C25.7471 29.38 25.4271 29.24 25.1671 28.98L24.8371 29.51C25.1571 29.83 25.6271 29.99 26.1171 29.99C26.8671 29.99 27.4271 29.66 27.8671 28.63L30.4971 22.74H29.7971ZM33.0484 28.05C34.4184 28.05 35.2184 27.46 35.2184 26.55C35.2184 24.53 31.8084 25.6 31.8084 24.18C31.8084 23.68 32.2284 23.31 33.1784 23.31C33.7184 23.31 34.2684 23.44 34.7284 23.76L35.0384 23.19C34.5984 22.89 33.8584 22.7 33.1784 22.7C31.8384 22.7 31.0984 23.34 31.0984 24.2C31.0984 26.28 34.5084 25.2 34.5084 26.57C34.5084 27.09 34.0984 27.43 33.0984 27.43C32.3584 27.43 31.6484 27.17 31.2284 26.84L30.9084 27.4C31.3384 27.77 32.1784 28.05 33.0484 28.05ZM40.2282 23.77V22.74H39.5482V28H40.2582V25.32C40.2582 24.08 40.9282 23.38 42.0282 23.38C42.0782 23.38 42.1382 23.39 42.1982 23.39V22.7C41.2282 22.7 40.5582 23.07 40.2282 23.77ZM48.2249 25.37C48.2249 23.79 47.1549 22.7 45.6749 22.7C44.1949 22.7 43.1049 23.81 43.1049 25.37C43.1049 26.93 44.2249 28.05 45.8649 28.05C46.6949 28.05 47.4249 27.75 47.8949 27.19L47.4949 26.73C47.0949 27.19 46.5249 27.42 45.8849 27.42C44.7349 27.42 43.8949 26.69 43.8149 25.59H48.2149C48.2149 25.51 48.2249 25.43 48.2249 25.37ZM45.6749 23.31C46.7049 23.31 47.4549 24.03 47.5449 25.06H43.8149C43.9049 24.03 44.6549 23.31 45.6749 23.31ZM51.5636 22.7C50.7336 22.7 49.9536 22.96 49.4236 23.41L49.7436 23.94C50.1736 23.56 50.8136 23.32 51.4936 23.32C52.4736 23.32 52.9836 23.81 52.9836 24.71V25.03H51.3136C49.8036 25.03 49.2836 25.71 49.2836 26.52C49.2836 27.43 50.0136 28.05 51.2036 28.05C52.0736 28.05 52.6936 27.72 53.0136 27.18V28H53.6936V24.74C53.6936 23.38 52.9236 22.7 51.5636 22.7ZM51.3136 27.49C50.4736 27.49 49.9836 27.11 49.9836 26.5C49.9836 25.96 50.3136 25.56 51.3336 25.56H52.9836V26.42C52.7036 27.11 52.1136 27.49 51.3136 27.49ZM59.9316 20.58V23.74C59.4916 23.06 58.7716 22.7 57.9316 22.7C56.4316 22.7 55.3116 23.78 55.3116 25.37C55.3116 26.96 56.4316 28.05 57.9316 28.05C58.8016 28.05 59.5316 27.67 59.9616 26.96V28H60.6416V20.58H59.9316ZM57.9916 27.42C56.8716 27.42 56.0316 26.6 56.0316 25.37C56.0316 24.14 56.8716 23.32 57.9916 23.32C59.1016 23.32 59.9416 24.14 59.9416 25.37C59.9416 26.6 59.1016 27.42 57.9916 27.42ZM66.5389 22.74L64.5589 27.21L62.5789 22.74H61.8389L64.1889 27.99L63.9589 28.5C63.6589 29.16 63.3389 29.38 62.8689 29.38C62.4889 29.38 62.1689 29.24 61.9089 28.98L61.5789 29.51C61.8989 29.83 62.3689 29.99 62.8589 29.99C63.6089 29.99 64.1689 29.66 64.6089 28.63L67.2389 22.74H66.5389ZM73.776 27.17C73.576 27.35 73.286 27.44 72.996 27.44C72.406 27.44 72.086 27.1 72.086 26.48V23.34H73.686V22.74H72.086V21.59H71.376V22.74H70.436V23.34H71.376V26.52C71.376 27.49 71.926 28.05 72.916 28.05C73.326 28.05 73.746 27.93 74.026 27.68L73.776 27.17ZM77.483 28.05C79.023 28.05 80.153 26.93 80.153 25.37C80.153 23.81 79.023 22.7 77.483 22.7C75.943 22.7 74.803 23.81 74.803 25.37C74.803 26.93 75.943 28.05 77.483 28.05ZM77.483 27.42C76.363 27.42 75.523 26.6 75.523 25.37C75.523 24.14 76.363 23.32 77.483 23.32C78.603 23.32 79.433 24.14 79.433 25.37C79.433 26.6 78.603 27.42 77.483 27.42ZM86.4597 22.7C85.6297 22.7 84.8497 22.96 84.3197 23.41L84.6397 23.94C85.0697 23.56 85.7097 23.32 86.3897 23.32C87.3697 23.32 87.8797 23.81 87.8797 24.71V25.03H86.2097C84.6997 25.03 84.1797 25.71 84.1797 26.52C84.1797 27.43 84.9097 28.05 86.0997 28.05C86.9697 28.05 87.5897 27.72 87.9097 27.18V28H88.5897V24.74C88.5897 23.38 87.8197 22.7 86.4597 22.7ZM86.2097 27.49C85.3697 27.49 84.8797 27.11 84.8797 26.5C84.8797 25.96 85.2097 25.56 86.2297 25.56H87.8797V26.42C87.5997 27.11 87.0097 27.49 86.2097 27.49ZM92.1281 28.05C93.4981 28.05 94.2981 27.46 94.2981 26.55C94.2981 24.53 90.8881 25.6 90.8881 24.18C90.8881 23.68 91.3081 23.31 92.2581 23.31C92.7981 23.31 93.3481 23.44 93.8081 23.76L94.1181 23.19C93.6781 22.89 92.9381 22.7 92.2581 22.7C90.9181 22.7 90.1781 23.34 90.1781 24.2C90.1781 26.28 93.5881 25.2 93.5881 26.57C93.5881 27.09 93.1781 27.43 92.1781 27.43C91.4381 27.43 90.7281 27.17 90.3081 26.84L89.9881 27.4C90.4181 27.77 91.2581 28.05 92.1281 28.05ZM97.2207 28.05C98.5907 28.05 99.3907 27.46 99.3907 26.55C99.3907 24.53 95.9807 25.6 95.9807 24.18C95.9807 23.68 96.4007 23.31 97.3507 23.31C97.8907 23.31 98.4407 23.44 98.9007 23.76L99.2107 23.19C98.7707 22.89 98.0307 22.7 97.3507 22.7C96.0107 22.7 95.2707 23.34 95.2707 24.2C95.2707 26.28 98.6807 25.2 98.6807 26.57C98.6807 27.09 98.2707 27.43 97.2707 27.43C96.5307 27.43 95.8207 27.17 95.4007 26.84L95.0807 27.4C95.5107 27.77 96.3507 28.05 97.2207 28.05ZM101.263 21.59C101.563 21.59 101.783 21.36 101.783 21.07C101.783 20.8 101.553 20.58 101.263 20.58C100.973 20.58 100.743 20.81 100.743 21.08C100.743 21.36 100.973 21.59 101.263 21.59ZM100.903 28H101.613V22.74H100.903V28ZM105.199 28.05C106.569 28.05 107.369 27.46 107.369 26.55C107.369 24.53 103.959 25.6 103.959 24.18C103.959 23.68 104.379 23.31 105.329 23.31C105.869 23.31 106.419 23.44 106.879 23.76L107.189 23.19C106.749 22.89 106.009 22.7 105.329 22.7C103.989 22.7 103.249 23.34 103.249 24.2C103.249 26.28 106.659 25.2 106.659 26.57C106.659 27.09 106.249 27.43 105.249 27.43C104.509 27.43 103.799 27.17 103.379 26.84L103.059 27.4C103.489 27.77 104.329 28.05 105.199 28.05ZM111.401 27.17C111.201 27.35 110.911 27.44 110.621 27.44C110.031 27.44 109.711 27.1 109.711 26.48V23.34H111.311V22.74H109.711V21.59H109.001V22.74H108.061V23.34H109.001V26.52C109.001 27.49 109.551 28.05 110.541 28.05C110.951 28.05 111.371 27.93 111.651 27.68L111.401 27.17Z" fill="#AEAEAE"/>
<path d="M27.746 10.448C28.772 9.908 29.42 8.936 29.42 7.676C29.42 5.714 27.8 4.4 24.65 4.4H18.494V17H25.01C28.322 17 30.05 15.74 30.05 13.562C30.05 11.978 29.15 10.898 27.746 10.448ZM24.29 6.596C25.712 6.596 26.486 7.082 26.486 8.072C26.486 9.062 25.712 9.566 24.29 9.566H21.392V6.596H24.29ZM24.794 14.804H21.392V11.69H24.794C26.306 11.69 27.116 12.194 27.116 13.256C27.116 14.336 26.306 14.804 24.794 14.804ZM36.6677 17.144C39.7457 17.144 41.9777 15.074 41.9777 12.158C41.9777 9.242 39.7457 7.172 36.6677 7.172C33.5897 7.172 31.3397 9.242 31.3397 12.158C31.3397 15.074 33.5897 17.144 36.6677 17.144ZM36.6677 14.84C35.2637 14.84 34.1837 13.832 34.1837 12.158C34.1837 10.484 35.2637 9.476 36.6677 9.476C38.0717 9.476 39.1337 10.484 39.1337 12.158C39.1337 13.832 38.0717 14.84 36.6677 14.84ZM48.4626 17.144C51.5406 17.144 53.7726 15.074 53.7726 12.158C53.7726 9.242 51.5406 7.172 48.4626 7.172C45.3846 7.172 43.1346 9.242 43.1346 12.158C43.1346 15.074 45.3846 17.144 48.4626 17.144ZM48.4626 14.84C47.0586 14.84 45.9786 13.832 45.9786 12.158C45.9786 10.484 47.0586 9.476 48.4626 9.476C49.8666 9.476 50.9286 10.484 50.9286 12.158C50.9286 13.832 49.8666 14.84 48.4626 14.84ZM62.8675 17H66.2695L61.8775 11.42L65.9095 7.316H62.5615L58.4575 11.204V3.644H55.6495V17H58.4575V14.534L59.8075 13.202L62.8675 17ZM70.4739 17.144C73.3719 17.144 75.0459 15.866 75.0459 14.066C75.0459 10.25 69.1959 11.852 69.1959 10.196C69.1959 9.692 69.7359 9.296 70.9959 9.296C71.8779 9.296 72.8319 9.476 73.7859 10.016L74.7219 8.018C73.8039 7.478 72.3279 7.172 70.9959 7.172C68.1699 7.172 66.5139 8.468 66.5139 10.304C66.5139 14.174 72.3639 12.554 72.3639 14.138C72.3639 14.678 71.8779 15.02 70.5819 15.02C69.3939 15.02 68.0799 14.642 67.2159 14.084L66.2799 16.1C67.1799 16.694 68.8359 17.144 70.4739 17.144ZM82.6644 7.172C81.4224 7.172 80.3424 7.568 79.5864 8.324V3.644H76.7784V17H79.5864V12.212C79.5864 10.43 80.5584 9.602 81.9084 9.602C83.1504 9.602 83.8704 10.322 83.8704 11.888V17H86.6784V11.456C86.6784 8.504 84.9504 7.172 82.6644 7.172ZM98.8152 12.194C98.8152 9.08 96.6192 7.172 93.7752 7.172C90.8232 7.172 88.6092 9.26 88.6092 12.158C88.6092 15.038 90.7872 17.144 94.1352 17.144C95.8812 17.144 97.2312 16.604 98.1312 15.578L96.6372 13.958C95.9712 14.588 95.2332 14.894 94.2072 14.894C92.7312 14.894 91.7052 14.156 91.4352 12.95H98.7612C98.7792 12.716 98.8152 12.41 98.8152 12.194ZM93.7932 9.296C95.0532 9.296 95.9712 10.088 96.1692 11.312H91.3992C91.5972 10.07 92.5152 9.296 93.7932 9.296ZM100.685 17H103.493V3.644H100.685V17ZM109.177 7.118C109.177 6.164 109.627 5.714 110.455 5.714C110.887 5.714 111.283 5.84 111.589 6.056L112.327 4.022C111.805 3.662 110.977 3.5 110.185 3.5C107.773 3.5 106.441 4.922 106.441 7.1V7.532H104.947V9.692H106.441V17H109.249V9.692H111.661V7.532H109.177V7.118Z" fill="#1B8366"/>
<path fill-rule="evenodd" clip-rule="evenodd" d="M0.510602 12.1295C1.27952 12.4146 1.78137 9.86815 2.26262 9.22221C3.061 8.15159 4.44516 7.93575 5.25812 9.01339C6.84569 11.1168 6.29855 15.6578 8.55905 16.8415C10.5794 17.8996 11.5311 13.3559 13.2318 12.2247C14.2206 11.5668 15.306 11.1362 14.9201 8.77589C14.6537 7.14374 13.8686 6.72447 13.0151 7.35148C11.5482 8.42804 11.0502 12.8138 9.31118 12.8923C7.51197 12.9734 7.3168 8.54435 6.5444 6.61519C5.36679 3.67493 2.94599 2.96461 1.57037 5.77612C1.15502 6.62439 -0.953732 11.5879 0.510602 12.1295Z" fill="url(#paint0_linear)"/>
<defs>
<linearGradient id="paint0_linear" x1="4.56522" y1="6.70833" x2="16.4477" y2="5.71481" gradientUnits="userSpaceOnUse">
<stop stop-color="#59C57A"/>
<stop offset="1" stop-color="#1B8366"/>
</linearGradient>
</defs>
</svg>
